<?xml version="1.0" encoding="UTF-8"?>
<svg enable-background="new 0 0 512 512" viewBox="0 0 512 512" xml:space="preserve" xmlns="http://www.w3.org/2000/svg"><polyline points="434.43 279.08 434.43 27.147 115.31 27.147 115.31 366.29" fill="#D6C8B0"/><polyline points="405.75 251.93 405.75 0 86.625 0 86.625 339.14" fill="#F9EED7"/><path d="m458.52 478.6v-191.05c0-20.334-16.483-36.817-36.817-36.817h-163.88c-15.138 0-28.732-9.265-34.268-23.354l-7.255-18.468c-5.535-14.089-19.13-23.354-34.268-23.354h-91.724c-20.334 0-36.817 16.483-36.817 36.817v256.23c0 18.445 14.953 33.398 33.398 33.398h338.24c18.444-1e-3 33.397-14.954 33.397-33.399z" fill="#FFD15C"/><path d="m75.286 478.6v-256.23c0-20.334 16.483-36.817 36.817-36.817h-21.803c-20.334 0-36.817 16.483-36.817 36.817v256.23c0 18.445 14.953 33.397 33.398 33.397h21.803c-18.445 0-33.398-14.952-33.398-33.397z" fill="#EDBB4C"/><circle cx="167.82" cy="80.225" r="35.468" fill="#DBCEBA"/><path d="m155.24 80.227c0-15.582 10.052-28.806 24.022-33.569-3.592-1.225-7.439-1.899-11.447-1.899-19.589 0-35.468 15.879-35.468 35.468 0 19.588 15.879 35.468 35.468 35.468 4.007 0 7.855-0.674 11.447-1.899-13.97-4.763-24.022-17.988-24.022-33.569z" fill="#D6C8B0"/><path d="m132.35 151.16c0-19.589 15.879-35.468 35.468-35.468s35.468 15.879 35.468 35.468" fill="#FF525D"/><path d="m363.4 63.069h-113.5c-4.515 0-8.176-3.661-8.176-8.176s3.661-8.176 8.176-8.176h113.5c4.517 0 8.176 3.661 8.176 8.176s-3.659 8.176-8.176 8.176z" fill="#34ABE0"/><path d="m363.4 223.18h-46.573c-4.517 0-8.176-3.661-8.176-8.176s3.66-8.176 8.176-8.176h46.573c4.517 0 8.176 3.661 8.176 8.176s-3.659 8.176-8.176 8.176z" fill="#34ABE0"/><path d="m363.4 183.15h-113.5c-4.515 0-8.176-3.661-8.176-8.176s3.661-8.176 8.176-8.176h113.5c4.517 0 8.176 3.661 8.176 8.176s-3.659 8.176-8.176 8.176z" fill="#34ABE0"/><path d="m363.4 103.1h-113.5c-4.515 0-8.176-3.661-8.176-8.176s3.661-8.176 8.176-8.176h113.5c4.517 0 8.176 3.661 8.176 8.176 0 4.516-3.659 8.176-8.176 8.176z" fill="#34ABE0"/><path d="m363.4 143.13h-113.5c-4.515 0-8.176-3.661-8.176-8.176s3.661-8.176 8.176-8.176h113.5c4.517 0 8.176 3.661 8.176 8.176s-3.659 8.176-8.176 8.176z" fill="#34ABE0"/></svg>
