<svg xmlns="http://www.w3.org/2000/svg" viewBox="0 0 490.667 490.667"><path d="M245.333 0C109.839 0 0 109.839 0 245.333s109.839 245.333 245.333 245.333 245.333-109.839 245.333-245.333C490.514 109.903 380.764.153 245.333 0z" fill="#2196f3"/><path d="M267.968 82.219c-12.496-12.492-32.752-12.492-45.248 0L104.533 200.533c-18.889 18.894-18.889 49.522 0 68.416 19.139 18.289 49.277 18.289 68.416 0l19.2-19.2v123.584c0 29.455 23.878 53.333 53.333 53.333s53.333-23.878 53.333-53.333V249.749l19.2 19.2c19.139 18.289 49.277 18.289 68.416 0 18.889-18.894 18.889-49.522 0-68.416L267.968 82.219z" fill="#fafafa"/></svg>